<?xml version="1.0" encoding="utf-8"?>
<!-- Generator: Adobe Illustrator 19.2.0, SVG Export Plug-In . SVG Version: 6.00 Build 0)  -->
<svg version="1.1" id="Layer_1" xmlns="http://www.w3.org/2000/svg" xmlns:xlink="http://www.w3.org/1999/xlink" x="0px" y="0px"
	 viewBox="0 0 360 360" style="enable-background:new 0 0 360 360;" xml:space="preserve">
<style type="text/css">
	.st0{fill:#FFFFFF;}
</style>
<g>
	<path class="st0" d="M46.6,3.2c-0.9-1.8,0-3.2,2-3.2h82.8c2,0,4.3,1.4,5.2,3.2l176.8,353.6c0.9,1.8,0,3.2-2,3.2h-82.8
		c-2,0-4.3-1.4-5.2-3.2L46.6,3.2z"/>
</g>
<g>
	<path class="st0" d="M181.6,3.2c-0.9-1.8,0-3.2,2-3.2h82.8c2,0,4.3,1.4,5.2,3.2l86.8,173.6c0.9,1.8,0,3.2-2,3.2h-82.8
		c-2,0-4.3-1.4-5.2-3.2L181.6,3.2z"/>
</g>
<g>
	<path class="st0" d="M178.4,356.8c0.9,1.8,0,3.2-2,3.2H93.6c-2,0-4.3-1.4-5.2-3.2L1.6,183.2c-0.9-1.8,0-3.2,2-3.2h82.8
		c2,0,4.3,1.4,5.2,3.2L178.4,356.8z"/>
</g>
</svg>
